<svg xmlns="http://www.w3.org/2000/svg" width="78.581" height="72.772" viewBox="0 0 78.581 72.772">
  <g id="Group_61462" data-name="Group 61462" transform="translate(3434.139 -7067.154)">
    <path id="Path_79212" data-name="Path 79212" d="M345.513,355.55a2.763,2.763,0,1,0-5.526,0,2.829,2.829,0,0,0,.074.613H328.594a2.762,2.762,0,1,0-4.418,1.526,2.758,2.758,0,1,0,4.492,2.138,2.2,2.2,0,0,0-.023-.221H340.01c-.007.073-.023.144-.023.221a2.763,2.763,0,1,0,4.491-2.138A2.744,2.744,0,0,0,345.513,355.55Z" transform="translate(-3728.773 6742.852)" fill="none"/>
    <g id="Group_61379" data-name="Group 61379" transform="translate(-3420.201 7086.349)">
      <path id="Path_79213" data-name="Path 79213" d="M537.228,281.414a5.76,5.76,0,0,0-.583.028A4.785,4.785,0,0,0,537.228,281.414Z" transform="translate(-494.288 -281.412)" fill="#f1f2f2"/>
      <path id="Path_79214" data-name="Path 79214" d="M536.589,281.64h0Z" transform="translate(-494.237 -281.61)" fill="#f1f2f2"/>
      <path id="Path_79215" data-name="Path 79215" d="M212.457,317.416l.179-.017C212.576,317.4,212.515,317.409,212.457,317.416Z" transform="translate(-212.293 -312.715)" fill="#f1f2f2"/>
      <path id="Path_79216" data-name="Path 79216" d="M243,282.54l-.03.035c-.517.047-.154-.023-.631.028-.183.062-.794.067-.957.106a1.344,1.344,0,0,1-.217,0,2.391,2.391,0,0,1-.387.047c-.053.012.04,0,.08.008l-.337.039c-.133,0-.167-.007-.023-.023-.884.071-5.127.43-6.078.528.124.008.417-.031.531-.013-.25.039-.371.028-.48.055-.1-.034-.554.039-.748.013l-.07.031-.126,0c-1.1.125-.252.035-1.233.118-.567.055-.834.113-1.151.129.047,0,.173,0,.027.019-.027-.019-.39.051-.464.035-.144.016-.611.055-.45.07-.081-.008-.5.024-.251-.011-.14.012-.277.02-.377.035l.181-.008c-.474.047-.735.048-1.041.1l.176,0a3.428,3.428,0,0,1-.634.032l.29-.035c-.47.043-.754.071-1.144.121l.14-.012c-.5.074-3.107.334-3.564.412l.214,0-.394.055c.047,0,.184-.09.224-.087-.848.079-5.257.494-6.042.549-.317.016-.06-.031-.057-.035-.384.043-.164.039-.491.067-.09,0,.017-.019.067-.027a2.373,2.373,0,0,0-.287.031c.18-.008.106.027.184.038l-.421.036.017-.019a4.416,4.416,0,0,1-.647.1l-2.155.189a1.909,1.909,0,0,1,.3-.051c-.094.008-.237.024-.324.024.171,0-.293.039-.16.035-.509.089-1.177.11-1.628.18-.036.042-.91.755-.906.8-.141.012-.281.024-.324.024a3.547,3.547,0,0,0,.461-.032l.023-.027c.337-.039.081.008.41-.024a2.741,2.741,0,0,1-.551.077,4.23,4.23,0,0,0,.579-.057c.227-.012-.023.027.251.011.194-.023.447-.066.671-.074l0,0c.544-.028.827-.106,1.325-.13l-.053.012c.176,0,.52-.051.837-.067-.091,0-.17,0,.02-.023.365-.02.611-.055.878-.063l.253-.043,7.53-.707-.049.008c1.935-.184,5.91-.541,7.908-.749.311-.008.738-.051,1.061-.075-.18.008-.12-.011.02-.023.984-.086.065-.019,1.059-.118,1.144-.121,5.53-.5,6.549-.571.544-.078,1.228-.118,1.761-.184l-.053.012c.574-.063,3.83-.329,4.5-.4l-.09,0c.581-.07.5-.032.964-.063a2.408,2.408,0,0,1,.624-.11l-.006.008c.286-.031.934-.118,1.408-.165l-.017.019c.394-.055,1.138-.114,1.422-.141.651-.051,1.656-.111,2.522-.213h.566l.082-.012s.849-.69-.31-.716l.017-.019-.227.023a2.408,2.408,0,0,1-.38.028l.373-.031c-.274.02-.084-.007.02-.026-.114.009-.226.016-.317.019-.053.012.04,0,.083,0-.147.02-.35.055-.53.062-.28.024-.021-.027-.347,0-1.725.142-3.4.272-5.139.433-.04,0,.007-.008.057-.016l-1.468.145a1.18,1.18,0,0,1-.211-.007c.04,0-.619.067-1.294.13Z" transform="translate(-211.2 -281.614)" fill="#f1f2f2"/>
    </g>
    <path id="Path_79217" data-name="Path 79217" d="M223.411,202.475l-27.1,21.364,6.241,42.488h42.511l5.441-42.968Z" transform="translate(-3618.453 6873.6)" fill="#93704e"/>
    <g id="Group_61381" data-name="Group 61381" transform="translate(-3424.293 7085.596)">
      <g id="Group_61380" data-name="Group 61380" transform="translate(0 0)">
        <path id="Path_79218" data-name="Path 79218" d="M612.9,489.082l.237.007Z" transform="translate(-556.53 -461.301)" fill="#856546"/>
        <path id="Path_79219" data-name="Path 79219" d="M608.83,488.967l.53.015Z" transform="translate(-552.986 -461.201)" fill="#856546"/>
        <path id="Path_79220" data-name="Path 79220" d="M608.763,488.965h0Z" transform="translate(-552.919 -461.199)" fill="#856546"/>
        <path id="Path_79221" data-name="Path 79221" d="M181.633,507.475l-.237-.008Z" transform="translate(-181.183 -477.293)" fill="#856546"/>
        <path id="Path_79222" data-name="Path 79222" d="M179.758,507.411l.14,0Z" transform="translate(-179.758 -477.244)" fill="#856546"/>
        <path id="Path_79223" data-name="Path 79223" d="M182.716,507.5l-.049,0,.049,0Z" transform="translate(-182.288 -477.322)" fill="#856546"/>
        <path id="Path_79224" data-name="Path 79224" d="M616.4,489.165c.04,0,.033,0,0,0Z" transform="translate(-559.568 -461.372)" fill="#856546"/>
        <path id="Path_79225" data-name="Path 79225" d="M261.882,487.95c-.281,0-.563-.014-.845,0-.564.036-1.131.059-1.7.083-.052-.005.01-.008.076-.014l-1.933.094a2.033,2.033,0,0,1-.275-.015c.052.005-.816.045-1.7.084l-1.826.075-.042.034c-.68.029-.2-.028-.828.006-.244.055-1.045.039-1.261.072a2.386,2.386,0,0,1-.284-.007,4.125,4.125,0,0,1-.51.033c-.07.01.052.005.1.01l-.444.027c-.174,0-.218-.013-.029-.024-1.163.04-6.746.249-8,.314.162.012.548-.017.7.006-.33.03-.488.015-.633.038-.129-.038-.728.02-.981-.013l-.094.029-.165-.008c-1.455.086-.332.026-1.623.074-.736.035-1.09.082-1.5.088.07,0,.191.008.015.021-.034-.02-.515.037-.61.019-.189.011-.8.033-.595.054-.1-.01-.653.006-.327-.02-.185.007-.364.01-.5.022l.238,0c-.624.03-.965.022-1.371.066l.231,0a5.867,5.867,0,0,1-.833.01l.383-.025c-.619.027-.992.044-1.508.081l.184-.007c-.656.057-4.094.224-4.7.286l.28.011-.52.041c.062,0,.248-.084.3-.079-1.116.049-6.921.309-7.952.337-.416,0-.076-.033-.072-.037-.506.03-.217.033-.648.049-.118,0,.024-.019.09-.025-.189.011-.364.01-.378.02.236,0,.137.031.238.045l-.277.009-.277.006.024-.019c-.124,0-.311.051-.855.087-.731.052-1.51.118-2.125.169l.076.536a2.177,2.177,0,0,0,.345.024c-.119-.006-.223-.018.028-.016.48.019.806.013,1.157.033l.336-.013c.209,0,.495.015.837,0l.554-.034.626-.028,2.937-.132,4.959-.224-.065.006c2.548-.116,7.779-.333,10.411-.471.408,0,.97-.026,1.395-.038-.237,0-.156-.016.028-.022,1.295-.052.087-.017,1.4-.08,1.507-.081,7.278-.3,8.617-.341.718-.059,1.616-.075,2.32-.122l-.071.01,5.918-.242h-.118c.766-.05.663-.014,1.268-.029a4.1,4.1,0,0,1,.826-.088l-.009.007.836-.045c.339-.023.707-.067,1.019-.092l-.024.018c.519-.059,1.5-.132,1.869-.165.546-.041,1.281-.1,1.977-.166l.04-.306c-1.064-.025-2.172-.049-3.283-.073Z" transform="translate(-211.735 -460.31)" fill="#856546"/>
        <path id="Path_79226" data-name="Path 79226" d="M626.181,384.689c.041,0,.034,0,0,0Z" transform="translate(-568.079 -370.494)" fill="#856546"/>
        <path id="Path_79227" data-name="Path 79227" d="M201.573,381.839c-.121-.011-.227-.028.029-.014.489.039.822.047,1.18.081h.343c.213.009.5.036.854.033l.567-.011.64,0,3-.009,5.071-.016-.067,0c2.605-.01,7.953-.008,10.646-.036.416.02.991.015,1.425.02-.242-.008-.159-.022.03-.021,1.324,0,.089-.014,1.428-.022,1.541-.018,7.441,0,8.81.019.735-.029,1.653-.007,2.373-.025l-.072.007,6.051.006-.121,0c.784-.018.677.014,1.295.024a4.277,4.277,0,0,1,.847-.053l-.01.007.855-.01c.347-.008.725-.038,1.044-.05l-.025.017c.532-.038,1.532-.069,1.914-.087.7-.022,1.694-.06,2.556-.1l.03-.233c-.045-.026.03-.026-.409-.054l-3.446-.215-.86-.051c-.287-.016-.574-.037-.863-.035-.577.013-1.157.011-1.743.012-.053-.007.01-.007.078-.01l-1.977.013a2.124,2.124,0,0,1-.28-.026c.053.007-.835.011-1.743.013h-1.867l-.045.032c-.7,0-.2-.037-.845-.029-.251.045-1.068,0-1.29.019a2.444,2.444,0,0,1-.29-.019,4.347,4.347,0,0,1-.522.012c-.072.007.053.007.107.015l-.455.009c-.178-.008-.222-.022-.028-.025-1.189-.009-6.9-.032-8.176-.02.165.018.56.006.71.035-.339.016-.5-.006-.648.011-.13-.043-.744-.01-1-.054l-.1.025-.168-.015c-1.489.025-.34.012-1.66.007-.752,0-1.116.037-1.533.026.071,0,.194.015.014.021-.034-.022-.527.015-.623-.006-.194,0-.822,0-.609.029-.107-.015-.667-.021-.333-.034-.189,0-.372-.005-.508,0l.243.008c-.638,0-.986-.019-1.4.008l.236.012a6.1,6.1,0,0,1-.851-.025l.392-.009c-.633,0-1.015,0-1.542.018h.188c-.672.029-4.188.053-4.807.09l.285.023-.533.019c.063,0,.257-.074.31-.066-1.141,0-7.077.02-8.13,0-.425-.012-.077-.036-.072-.04-.517.008-.223.024-.663.022-.12,0,.025-.018.093-.021-.193,0-.372-.005-.386,0,.241.01.139.037.241.055l-.283,0-.283-.005.025-.018c-.126,0-.32.038-.876.051-.938.026-1.957.073-2.9.107.015-.007.213-.019.411-.032-.127.005-.319.015-.436.015.228,0-.4.025-.218.022-.464.034-1.019.054-1.45.076l.04.284h-.056c.73.06,1.117.057,1.783.109h-.072C200.683,381.787,201.147,381.8,201.573,381.839Z" transform="translate(-196.266 -367.284)" fill="#856546"/>
        <path id="Path_79228" data-name="Path 79228" d="M491.862,276.165a1.5,1.5,0,0,0,.324.024A1.782,1.782,0,0,0,491.862,276.165Z" transform="translate(-451.242 -276.095)" fill="#856546"/>
        <path id="Path_79229" data-name="Path 79229" d="M491.832,276.161h0Z" transform="translate(-451.214 -276.092)" fill="#856546"/>
        <path id="Path_79230" data-name="Path 79230" d="M310.21,276.545l.014-.025c.189-.009.044.015.228.013.01.02-.16.025-.309.027a1.3,1.3,0,0,0,.323-.005c.126.008-.014.025.138.034a2.518,2.518,0,0,1,.375-.014l0,0c.3.021.463-.031.74-.01l-.03.007c.1.012.29,0,.466.009-.05,0-.094-.019.012-.021.2.013.341,0,.489.016l.142-.02c.706,0,3.494-.024,4.2-.028l-.028,0c1.08-.01,3.3-.008,4.414-.036.173.02.411.015.591.02-.1-.008-.066-.022.012-.021.549,0,.037-.014.592-.022.639-.018,3.085,0,3.653.019.3-.029.685-.007.984-.025l-.03.007c.321-.011,2.136.016,2.509.006l-.05,0a3.11,3.11,0,0,1,.537.023c-.034-.032.245-.051.351-.053l0,.007c.16-.005.523-.034.788-.038l-.01.018c.221-.019.635-.011.794-.013.363.007.922.038,1.407.015l.313.051.046-.005s.5-.611-.136-.741l.01-.018-.126,0c-.152-.009-.222.012-.212-.006l.208,0c-.153-.005-.046-.015.012-.025-.064,0-.126,0-.176-.009-.03.007.022.007.046.011a1.921,1.921,0,0,1-.3.015c-.156,0-.01-.029-.192-.031-.962-.014-1.894-.034-2.866-.03-.022-.007,0-.007.032-.01l-.82.013a.4.4,0,0,1-.116-.026c.022.007-.346.011-.723.013h-.524l-.25,0-.018.032c-.288,0-.084-.037-.351-.029a4.63,4.63,0,0,1-.535.019s-.128,0-.12-.019c-.04.025-.134.006-.217.012-.03.007.022.007.044.015l-.189.009c-.074-.008-.092-.022-.012-.025-.493-.009-2.859-.032-3.39-.02a2.565,2.565,0,0,1,.295.035c-.14.016-.207-.006-.269.011-.054-.043-.308-.01-.415-.054l-.04.025-.07-.015a5.142,5.142,0,0,1-.688.007c-.317,0-.467.038-.643.025.026,0,.1.015.014.022-.014-.022-.219.015-.258-.006-.08,0-.341,0-.253.029-.044-.015-.276-.021-.138-.034a1.989,1.989,0,0,0-.211,0l.1.008a4.722,4.722,0,0,0-.581.008l.1.012a1.065,1.065,0,0,1-.353-.025l.162-.009c-.262,0-.421,0-.639.018h.078c-.279.029-1.736.053-1.993.09l.118.023-.221.019c.026,0,.107-.074.129-.066-.473,0-2.934.02-3.371,0-.176-.012-.032-.036-.03-.04-.215.008-.093.024-.275.022-.05,0,.01-.018.038-.021a.736.736,0,0,0-.16.005c.1.008.058.036.1.055l-.235,0,.01-.018a1.4,1.4,0,0,1-.363.039c-.389-.008-.811,0-1.2-.006a.605.605,0,0,1,.17-.023,1.5,1.5,0,0,1-.181-.005c.094.019-.164.012-.09.02-.286.043-.657,0-.91.033-.022.039-.541.67-.541.717-.078,0-.157,0-.181-.005A1.1,1.1,0,0,0,310.21,276.545Z" transform="translate(-293.008 -275.628)" fill="#856546"/>
        <path id="Path_79231" data-name="Path 79231" d="M609.617,626.745l-.765-.028Z" transform="translate(-553.005 -581.023)" fill="#856546"/>
        <path id="Path_79232" data-name="Path 79232" d="M608.779,626.715h0Z" transform="translate(-552.938 -581.021)" fill="#856546"/>
        <path id="Path_79233" data-name="Path 79233" d="M181.627,627.07l-.236-.01Z" transform="translate(-181.178 -581.321)" fill="#856546"/>
        <path id="Path_79234" data-name="Path 79234" d="M179.885,626.994l-.127-.005Z" transform="translate(-179.758 -581.259)" fill="#856546"/>
        <path id="Path_79235" data-name="Path 79235" d="M181.04,627.04l-.3-.012.3.012Z" transform="translate(-180.608 -581.293)" fill="#856546"/>
        <path id="Path_79236" data-name="Path 79236" d="M274.778,623.512l-1.934-.03c-.175-.008-.222-.017-.274-.023.052.006-.816-.008-1.7-.02l-1.826-.028-.044.025c-.68-.008-.2-.032-.827-.034-.246.034-1.045-.016-1.262,0a2.684,2.684,0,0,1-.284-.02,4.877,4.877,0,0,1-.511.005c-.07.005.052.007.1.014l-.445,0c-.174-.008-.217-.022-.028-.022-1.163-.024-6.745-.081-8-.067.161.019.548.007.694.036-.331.016-.487-.007-.633.01-.127-.043-.728-.012-.979-.056l-.1.024-.164-.015c-1.456.025-.333.011-1.624.006-.736,0-1.091.037-1.5.027.07,0,.191.015.014.021-.033-.021-.515.016-.61,0-.189,0-.8,0-.6.03-.1-.015-.652-.018-.326-.032-.185,0-.364,0-.5,0l.237.007c-.624.006-.965-.015-1.371.013l.231.01a6.1,6.1,0,0,1-.832-.02l.383-.011c-.619,0-.992.007-1.508.026h.184c-.657.031-4.1.077-4.7.115l.279.018-.521.02c.062,0,.251-.065.3-.059l-7.952.1c-.416,0-.075-.02-.07-.022-.506.014-.219.018-.649.024-.118,0,.024-.01.09-.013-.189,0-.364,0-.378.01a.676.676,0,0,1,.236.026l-.554.008.025-.01c-.123,0-.874.034-.659.028l.052.364c.721.03,2.6.069,4.491.1l4.96.055-.066,0c2.548.023,7.779.053,10.413.025.407.02.969.016,1.394.021-.236-.008-.156-.022.029-.021,1.295,0,.087-.014,1.4-.023,1.508-.016,7.278-.019,8.617-.02.719-.031,1.616-.02,2.321-.043l-.071.007c.756-.013,5.039-.046,5.918-.071h-.118c.767-.024.662,0,1.266-.007a6.788,6.788,0,0,1,.828-.045l-.009,0,1.858-.051-.024.008c.423-.014,1.148-.026,1.606-.035l.035-.271c-1.457-.043-2.908-.082-4.4-.112C274.65,623.511,274.712,623.513,274.778,623.512Z" transform="translate(-227.086 -578.057)" fill="#856546"/>
        <path id="Path_79237" data-name="Path 79237" d="M616.4,626.989Z" transform="translate(-559.575 -581.259)" fill="#856546"/>
      </g>
    </g>
    <path id="Path_79238" data-name="Path 79238" d="M326.8,455.716c0-.1.013-.2.013-.307,0-9.349-6.292-16.928-14.056-16.928S298.7,446.06,298.7,455.409c0,.1.012.2.013.307H298.7l1.966,15.861h23.86l2.286-15.861Z" transform="translate(-3707.514 6668.31)" fill="#2d1d10"/>
    <g id="Group_61382" data-name="Group 61382" transform="translate(-3416.053 7129.134)">
      <path id="Path_79239" data-name="Path 79239" d="M248.079,633.655a.439.439,0,1,1-.428-.45A.439.439,0,0,1,248.079,633.655Z" transform="translate(-246.663 -630.205)" fill="#cfd1d2"/>
      <path id="Path_79240" data-name="Path 79240" d="M243.947,610.6a.439.439,0,1,1-.428-.45A.439.439,0,0,1,243.947,610.6Z" transform="translate(-243.069 -610.151)" fill="#cfd1d2"/>
    </g>
    <g id="Group_61383" data-name="Group 61383" transform="translate(-3419.002 7113.396)">
      <path id="Path_79241" data-name="Path 79241" d="M225.419,512.736a.439.439,0,1,1-.428-.45A.439.439,0,0,1,225.419,512.736Z" transform="translate(-224.003 -509.285)" fill="#cfd1d2"/>
      <path id="Path_79242" data-name="Path 79242" d="M221.287,489.682a.439.439,0,1,1-.428-.45A.439.439,0,0,1,221.287,489.682Z" transform="translate(-220.409 -489.232)" fill="#cfd1d2"/>
    </g>
    <g id="Group_61384" data-name="Group 61384" transform="translate(-3421.374 7098.312)">
      <path id="Path_79243" data-name="Path 79243" d="M207.193,396.835a.439.439,0,1,1-.428-.45A.439.439,0,0,1,207.193,396.835Z" transform="translate(-205.777 -393.385)" fill="#cfd1d2"/>
      <path id="Path_79244" data-name="Path 79244" d="M203.061,373.782a.439.439,0,1,1-.428-.45A.439.439,0,0,1,203.061,373.782Z" transform="translate(-202.183 -373.332)" fill="#cfd1d2"/>
    </g>
    <g id="Group_61385" data-name="Group 61385" transform="translate(-3370.021 7098.106)">
      <path id="Path_79245" data-name="Path 79245" d="M596.759,395.4a.439.439,0,1,0,.413-.464A.439.439,0,0,0,596.759,395.4Z" transform="translate(-596.758 -391.915)" fill="#cfd1d2"/>
      <path id="Path_79246" data-name="Path 79246" d="M600.125,372.218a.439.439,0,1,0,.413-.464A.439.439,0,0,0,600.125,372.218Z" transform="translate(-599.686 -371.753)" fill="#cfd1d2"/>
    </g>
    <g id="Group_61386" data-name="Group 61386" transform="translate(-3372.143 7111.441)">
      <path id="Path_79247" data-name="Path 79247" d="M580.448,497.851a.439.439,0,1,0,.413-.463A.439.439,0,0,0,580.448,497.851Z" transform="translate(-580.447 -494.37)" fill="#cfd1d2"/>
      <path id="Path_79248" data-name="Path 79248" d="M583.814,474.673a.439.439,0,1,0,.413-.464A.439.439,0,0,0,583.814,474.673Z" transform="translate(-583.375 -474.208)" fill="#cfd1d2"/>
    </g>
    <g id="Group_61387" data-name="Group 61387" transform="translate(-3374.204 7129.126)">
      <path id="Path_79249" data-name="Path 79249" d="M564.616,633.732a.439.439,0,1,0,.413-.464A.439.439,0,0,0,564.616,633.732Z" transform="translate(-564.615 -630.251)" fill="#cfd1d2"/>
      <path id="Path_79250" data-name="Path 79250" d="M567.983,610.553a.439.439,0,1,0,.413-.464A.439.439,0,0,0,567.983,610.553Z" transform="translate(-567.544 -610.088)" fill="#cfd1d2"/>
    </g>
    <g id="Group_61388" data-name="Group 61388" transform="translate(-3406.975 7092.332)">
      <path id="Path_79251" data-name="Path 79251" d="M502.307,411.8l.028.28C502.326,411.984,502.317,411.889,502.307,411.8Z" transform="translate(-477.646 -400.809)" fill="#c9c8be"/>
      <path id="Path_79252" data-name="Path 79252" d="M337.273,336.027l0,.006c-.059-.85-.159-1.294-.212-2.071l.016.083c-.014-.275-1.892-.964-1.892-.964s1.781-.355,1.75-.652c-.041-.57-.1-.679-.118-1.1l-.061-.4c-.048-.494-.132-1.353-.235-2.395q-.028-.289-.058-.591l-.039-.4-.01-.1c-.007-.029.008-.083-.04-.066l-.2.01-1.219.06-1.822.106c-2.46.153-4.919.337-5.916.44l.078-.01-1.277.116-.728.066-.383.035-.391.047-3.374.4-3.392.408c-1.068.129-2.038.274-2.818.38-.243.021-.53.055-.82.091l-1.214.154c.525-.06.353-.022-.039.029-.064-.011-.03.055-.033.09s.008.081.011.119q.011.115.021.216l.034.351c.014.141.024.238.031.305a.79.79,0,0,0,.019.133c.008.028.017.057.1.835.029.274.081.914.128,1.387.01.1,4.18-.376,4.18-.376a28.9,28.9,0,0,0-4.1,1.029c.091.939.2,2.049.3,3.152a13.237,13.237,0,0,0,.153,1.681c.021.092.36.2.368.283.038.41-.273.695-.239,1.06.056.605.107,1.154.15,1.618,0,.015.013.005.021.006l.028,0,.056-.007.111-.013.214-.026.395-.047.418-.049c.846-.137,1.911-.245,2.742-.368l-.083.018c.446-.072,1.94-.216,3.451-.374s3.04-.313,3.56-.373l-.14.01c.907-.114.785-.072,1.5-.129a5.307,5.307,0,0,1,.98-.138l-.011.009c.449-.042,1.464-.155,2.206-.22l-.027.022c.617-.071,1.782-.156,2.226-.194,1.018-.074,2.589-.167,3.948-.3l.883-.016.128-.016s.694-.4.434-.625l-.119-1.222a7.824,7.824,0,0,0,.559.848c.02.22.041.439.043.507.006-.058-.03-.491-.059-.72l-.031-.037c-.061-.528,0-.125-.048-.641a6.116,6.116,0,0,1,.113.863c-.034-.377-.054-.753-.093-.9-.025-.355.031.037,0-.39C337.354,336.774,337.293,336.377,337.273,336.027Z" transform="translate(-312.822 -327.386)" fill="#c9c8be"/>
    </g>
    <g id="Group_61389" data-name="Group 61389" transform="translate(-3407 7091.875)">
      <path id="Path_79253" data-name="Path 79253" d="M502.109,408.285c.01.1.02.2.029.28C502.128,408.474,502.119,408.379,502.109,408.285Z" transform="translate(-477.448 -397.299)" fill="#f4f3e4"/>
      <path id="Path_79254" data-name="Path 79254" d="M337.076,332.517l0,.006c-.059-.85-.159-1.294-.212-2.071l.016.083a10.449,10.449,0,0,0-2.234-.76,10.74,10.74,0,0,0,2.117-.548c.009.141,0,.265-.026-.031-.041-.569-.093-.956-.116-1.372l-.06-.4-.235-2.395q-.028-.29-.058-.591c-.013-.131-.026-.262-.039-.4l-.01-.1c-.007-.029.008-.083-.04-.066l-.2.01-1.219.06-1.822.106c-2.46.153-4.92.337-5.917.44l.078-.01-1.277.116-.728.066-.382.035-.391.047-3.374.4-3.392.408c-1.068.129-2.038.274-2.818.38-.243.021-.53.055-.82.091l-1.214.154c.524-.06.353-.022-.039.029-.064-.011-.03.055-.033.09s.008.081.011.119q.011.115.021.216l.034.351.031.305a.8.8,0,0,0,.019.133,8.4,8.4,0,0,1,.1.835c.034.312.081.78.137,1.346,3.194.07,3.952.014,3.952.014s-.7.089-3.859.932c.086.883.182,1.895.277,2.9.027.287.159,1.886.159,1.886l.729.414s-.652.227-.605.725l.15,1.618c0,.015.013.005.021.006l.028,0,.056-.007.111-.013.214-.026.395-.047.418-.049c.846-.137,1.911-.245,2.742-.368l-.083.018c.446-.071,1.94-.216,3.451-.374s3.04-.312,3.56-.373l-.14.01c.906-.114.785-.072,1.5-.129a5.3,5.3,0,0,1,.98-.138l-.01.009c.449-.042,1.464-.155,2.206-.22l-.027.022c.617-.071,1.781-.156,2.226-.194,1.018-.074,2.589-.167,3.948-.3l.883-.015.128-.016s.694-.4.434-.625l-.118-1.222a7.742,7.742,0,0,0,.558.848c.02.22.04.439.043.507.006-.058-.03-.491-.059-.72l-.031-.037c-.061-.528,0-.125-.048-.641a6.112,6.112,0,0,1,.113.863c-.034-.377-.054-.753-.093-.9-.025-.355.031.037,0-.39C337.157,333.264,337.1,332.867,337.076,332.517Z" transform="translate(-312.625 -323.876)" fill="#f4f3e4"/>
    </g>
    <path id="Path_79255" data-name="Path 79255" d="M143.26,211.5l-7.923,2.911,35.628-26.075,34.817,26.449-8.33-3.766s-9.607-6.279-14.727-10.2-12.37-9.446-12.37-9.446A89.832,89.832,0,0,1,156.6,202.767C149.572,207.23,143.26,211.5,143.26,211.5Z" transform="translate(-3565.411 6885.9)" fill="#1a0073"/>
    <path id="Path_79256" data-name="Path 79256" d="M143.2,133.929a220.818,220.818,0,0,1-18.68,15.875,209.729,209.729,0,0,1-20.408,13.08,47.018,47.018,0,0,1,4.064,4.2c11.3-5.271,35.016-25.016,35.016-25.016s23.067,18.834,35.429,25.391a31.209,31.209,0,0,1,4.071-4.2c-5.872-3.757-15.44-10.1-22.86-15.717C150.161,140.23,143.2,133.929,143.2,133.929Z" transform="translate(-3538.248 6933.225)" fill="#7152ee"/>
    <path id="Path_79281" data-name="Path 79281" d="M1.472,1.9c0,.223-.151.348-.409.348H.53V1.536h.522C1.309,1.536,1.472,1.672,1.472,1.9ZM1.407.8c0,.216-.144.329-.393.329H.53V.465h.484C1.264.465,1.407.586,1.407.8Zm.6,1.165A.64.64,0,0,0,1.5,1.324a.609.609,0,0,0,.45-.605c0-.393-.306-.681-.859-.681H0V2.679H1.139C1.687,2.679,2.009,2.384,2.009,1.964Zm3-.613A1.319,1.319,0,0,0,3.659,0,1.326,1.326,0,0,0,2.3,1.351,1.327,1.327,0,0,0,3.659,2.705,1.322,1.322,0,0,0,5.009,1.351Zm-2.16,0a.793.793,0,0,1,.81-.874.792.792,0,0,1,.806.874.811.811,0,1,1-1.616,0ZM7.2,2.679h.56L6.806.034H6.19L5.24,2.679H5.8l.174-.5H7.022Zm-.318-.927H6.114L6.5.647ZM9.511.859c0,.238-.132.393-.428.393H8.641V.477h.443C9.379.477,9.511.624,9.511.859ZM8.112.038V2.679h.53V1.65h.25l.583,1.029h.613L9.455,1.608a.763.763,0,0,0,.6-.76c0-.443-.318-.81-.953-.81Zm3.348,0h-.923V2.679h.923a1.272,1.272,0,0,0,1.392-1.317A1.276,1.276,0,0,0,11.46.038Zm-.393,2.191V.484h.375a.8.8,0,0,1,.87.878.79.79,0,0,1-.87.866Zm2.183.45h.53V.038h-.53ZM16.03.034V1.85L14.831.034H14.3V2.679h.53V.866l1.2,1.812h.53V.034ZM18.3,0a1.309,1.309,0,0,0-1.347,1.351A1.307,1.307,0,0,0,18.3,2.7a1.291,1.291,0,0,0,1.29-1.029V1.211h-1.43v.4h.908a.717.717,0,0,1-.749.609.8.8,0,0,1-.825-.87.788.788,0,0,1,.8-.863.664.664,0,0,1,.62.341h.609A1.213,1.213,0,0,0,18.3,0Z" transform="translate(-3404.391 7099.322) rotate(-8)"/>
  </g>
</svg>
